<?xml version="1.0" encoding="iso-8859-1"?>
<!-- Generator: Adobe Illustrator 19.0.0, SVG Export Plug-In . SVG Version: 6.00 Build 0)  -->
<svg version="1.1" id="Layer_1" xmlns="http://www.w3.org/2000/svg" xmlns:xlink="http://www.w3.org/1999/xlink" x="0px" y="0px"
	 viewBox="0 0 512 512" style="enable-background:new 0 0 512 512;" xml:space="preserve">
<polygon style="fill:#DD2C00;" points="350,176 376,189.2 392,181.2 392,508 120,508 120,148 129.6,148 266,224.8 344,174.4 "/>
<polygon style="fill:#EEEEEE;" points="376,188 347.2,174 388,148.8 392,181.2 "/>
<g>
	<path style="fill:#6D4C41;" d="M392,88c0,2.4-1.6,4-4,4h-48c-2.4,0-4-1.6-4-4V8c0-2.4,1.6-4,4-4h48c2.4,0,4,1.6,4,4V88z M376,76V20
		h-24v22v34H376z"/>
	<path style="fill:#6D4C41;" d="M394,108c2.4,0-2-2.8-2-0.4V148h-16v-24h-20l24,24h-44v-40.4c0-2,8,0.4,10,0.4H394z"/>
</g>
<g>
	<polygon style="fill:#8D6E63;" points="376,124 376,146 356,124 	"/>
	<polygon style="fill:#8D6E63;" points="376,20 376,76 352,76 352,42 352,20 	"/>
</g>
<polygon style="fill:#EEEEEE;" points="387.2,150 266,225.2 129.6,148 142.4,148 "/>
<g>
	<path style="fill:#6D4C41;" d="M320,88c0,2.4-1.6,4-4,4h-48c-2.4,0-4-1.6-4-4V8c0-2.4,1.6-4,4-4h48c2.4,0,4,1.6,4,4V88z M304,76V20
		h-24v22v34H304z"/>
	<path style="fill:#6D4C41;" d="M322,108c2.4,0-2-2.8-2-0.4V148h-16v-24h-20l24,24h-44v-40.4c0-2,8,0.4,10,0.4H322z"/>
</g>
<g>
	<polygon style="fill:#8D6E63;" points="304,124 304,146 284,124 	"/>
	<polygon style="fill:#8D6E63;" points="304,20 304,76 280,76 280,42 280,20 	"/>
</g>
<g>
	<path style="fill:#6D4C41;" d="M248,88c0,2.4-1.6,4-4,4h-48c-2.4,0-4-1.6-4-4V8c0-2.4,1.6-4,4-4h48c2.4,0,4,1.6,4,4V88z M232,76V20
		h-24v22v34H232z"/>
	<path style="fill:#6D4C41;" d="M248,148h-16v-24h-20l24,24h-44v-38c0-2,7.6-2,10-2h46"/>
</g>
<g>
	<polygon style="fill:#8D6E63;" points="232,124 232,146 212,124 	"/>
	<polygon style="fill:#8D6E63;" points="232,20 232,76 208,76 208,42 208,20 	"/>
</g>
<path style="fill:#6D4C41;" d="M176,88c0,2.4-1.6,4-4,4h-48c-2.4,0-4-1.6-4-4V8c0-2.4,1.6-4,4-4h48c2.4,0,4,1.6,4,4V88z M160,76V20
	h-24v22v34H160z"/>
<g>
	<polygon style="fill:#8D6E63;" points="160,124 160,146 140,124 	"/>
	<polygon style="fill:#8D6E63;" points="160,20 160,76 136,76 136,42 136,20 	"/>
</g>
<path style="fill:#6D4C41;" d="M126,145.6l4,2.4h-9.6v-40.4c0-2,7.6,0.4,10,0.4h46c4,0,0-2.8,0-0.4V148h-16v-24h-20l24,24h-21.2
	L126,145.6z"/>
<path d="M176,152c-2.4,0-4-1.6-4-4v-36h-42.8c-2.4,0-4,0-5.2,0v36c0,2.4-1.6,4-4,4s-4-1.6-4-4v-38c0-1.2,0.4-2.4,1.6-3.6
	c2-2,5.6-2.4,11.6-2.4h0.8h46c1.2,0,2.4,0.4,3.2,1.2c0.8,1.2,1.2,2.4,1.2,5.2V148C180,150.4,178.4,152,176,152z"/>
<path d="M248,152c-2.4,0-4-1.6-4-4v-36h-42.8c-3.2,0-4.4,0-5.2,0.4V148c0,2.4-1.6,4-4,4s-4-1.6-4-4v-36.4c0-2,0.8-3.6,2-4.8
	c3.2-2.8,8.4-2.8,11.2-2.8h0.4h46c2.4,0,4,1.6,4,4v40C252,150.4,250.4,152,248,152z"/>
<path d="M320,152c-2.4,0-4-1.6-4-4v-36h-42c-0.4,0-0.8,0-1.6,0s-3.2,0-4.4,0v36c0,2.4-1.6,4-4,4s-4-1.6-4-4v-38.4
	c0-1.2,0.4-2.4,1.6-3.6c2.4-2,6.4-2.4,11.2-2h1.2h46c2.4,0,4,1.6,4,4v40C324,150.4,322.4,152,320,152z"/>
<path d="M392,152c-2.4,0-4-1.6-4-4v-36h-43.2c-2,0-4,0-4.8,0v36c0,2.4-1.6,4-4,4s-4-1.6-4-4v-38.4c0-1.2,0.4-2.4,1.6-3.6
	c2-2,5.6-2.4,11.6-2.4h0.8h46c2.4,0,4,1.6,4,4v40C396,150.4,394.4,152,392,152z"/>
<path d="M172,96h-48c-4.4,0-8-3.6-8-8V8c0-4.4,3.6-8,8-8h48c4.4,0,8,3.6,8,8v80C180,92.4,176.4,96,172,96z M124,8v80h48V8H124z"/>
<path d="M244,96h-48c-4.4,0-8-3.6-8-8V8c0-4.4,3.6-8,8-8h48c4.4,0,8,3.6,8,8v80C252,92.4,248.4,96,244,96z M196,8v80h48V8H196z"/>
<path d="M316,96h-48c-4.4,0-8-3.6-8-8V8c0-4.4,3.6-8,8-8h48c4.4,0,8,3.6,8,8v80C324,92.4,320.4,96,316,96z M268,8v80h48V8H268z"/>
<path d="M388,96h-48c-4.4,0-8-3.6-8-8V8c0-4.4,3.6-8,8-8h48c4.4,0,8,3.6,8,8v80C396,92.4,392.4,96,388,96z M340,8v80h48V8H340z"/>
<path d="M160,152c-2.4,0-4-1.6-4-4v-20h-20c-2.4,0-4-1.6-4-4s1.6-4,4-4h24c2.4,0,4,1.6,4,4v24C164,150.4,162.4,152,160,152z"/>
<path d="M232,152c-2.4,0-4-1.6-4-4v-20h-20c-2.4,0-4-1.6-4-4s1.6-4,4-4h24c2.4,0,4,1.6,4,4v24C236,150.4,234.4,152,232,152z"/>
<path d="M304,152c-2.4,0-4-1.6-4-4v-20h-20c-2.4,0-4-1.6-4-4s1.6-4,4-4h24c2.4,0,4,1.6,4,4v24C308,150.4,306.4,152,304,152z"/>
<path d="M376,152c-2.4,0-4-1.6-4-4v-20h-20c-2.4,0-4-1.6-4-4s1.6-4,4-4h24c2.4,0,4,1.6,4,4v24C380,150.4,378.4,152,376,152z"/>
<path d="M160,80h-24c-2.4,0-4-1.6-4-4V44c0-2.4,1.6-4,4-4s4,1.6,4,4v28h16V24h-20c-2.4,0-4-1.6-4-4s1.6-4,4-4h24c2.4,0,4,1.6,4,4v56
	C164,78.4,162.4,80,160,80z"/>
<path d="M232,80h-24c-2.4,0-4-1.6-4-4V44c0-2.4,1.6-4,4-4s4,1.6,4,4v28h16V24h-20c-2.4,0-4-1.6-4-4s1.6-4,4-4h24c2.4,0,4,1.6,4,4v56
	C236,78.4,234.4,80,232,80z"/>
<path d="M304,80h-24c-2.4,0-4-1.6-4-4V44c0-2.4,1.6-4,4-4s4,1.6,4,4v28h16V24h-20c-2.4,0-4-1.6-4-4s1.6-4,4-4h24c2.4,0,4,1.6,4,4v56
	C308,78.4,306.4,80,304,80z"/>
<path d="M376,80h-24c-2.4,0-4-1.6-4-4V44c0-2.4,1.6-4,4-4s4,1.6,4,4v28h16V24h-20c-2.4,0-4-1.6-4-4s1.6-4,4-4h24c2.4,0,4,1.6,4,4v56
	C380,78.4,378.4,80,376,80z"/>
<path d="M392,184c-2.4,0-4-1.6-4-4v-28H124c-2.4,0-4-1.6-4-4s1.6-4,4-4h268c2.4,0,4,1.6,4,4v32C396,182.4,394.4,184,392,184z"/>
<path d="M392,512H120c-2.4,0-4-1.6-4-4V148c0-2.4,1.6-4,4-4h4c2.4,0,4,1.6,4,4s-1.6,4-4,4v352h264V184c0-2.4,1.6-4,4-4s4,1.6,4,4
	v324C396,510.4,394.4,512,392,512z"/>
<path d="M378,192c-0.8,0-1.2,0-2-0.4l-28-14c-2-1.2-2.8-3.6-1.6-5.2c1.2-2,3.6-2.8,5.2-1.6L378,184l12.4-5.6c2-0.8,4.4,0,5.2,2
	s0,4.4-2,5.2l-14,6.4C379.2,192,378.4,192,378,192z"/>
<path d="M266,227.6c-0.8,0-1.2,0-2-0.4l-141.6-75.6c-2-1.2-2.8-3.6-1.6-5.6s3.6-2.8,5.6-1.6L266,219.2l77.6-50.8
	c1.2-0.8,2.8-0.8,4-0.4l4,2c2,1.2,2.8,3.6,1.6,5.2c-1.2,2-3.6,2.8-5.2,1.6l-2-0.8l-78,50.8C267.6,227.6,266.8,227.6,266,227.6z"/>
<path d="M360,480H152c-2.4,0-4-1.6-4-4V236c0-2.4,1.6-4,4-4s4,1.6,4,4v236h200V184c0-2.4,1.6-4,4-4s4,1.6,4,4v292
	C364,478.4,362.4,480,360,480z"/>
<path d="M152,204c-2.4,0-4-1.6-4-4v-32c0-2.4,1.6-4,4-4s4,1.6,4,4v32C156,202.4,154.4,204,152,204z"/>
<g>
</g>
<g>
</g>
<g>
</g>
<g>
</g>
<g>
</g>
<g>
</g>
<g>
</g>
<g>
</g>
<g>
</g>
<g>
</g>
<g>
</g>
<g>
</g>
<g>
</g>
<g>
</g>
<g>
</g>
</svg>
